<svg aria-hidden="true" style="position: absolute; width: 0; height: 0; overflow: hidden;" version="1.1" xmlns="http://www.w3.org/2000/svg" xmlns:xlink="http://www.w3.org/1999/xlink">
  <defs>
    <symbol id="animals" viewBox="0 0 32 32">
      <path d="M10.667 0c-2.356 0-4.267 1.91-4.267 4.267v2.133c0 2.356 1.91 4.267 4.267 4.267s4.267-1.91 4.267-4.267v-2.133c0-2.356-1.91-4.267-4.267-4.267z"></path>
      <path d="M21.333 0c-2.356 0-4.267 1.91-4.267 4.267v2.133c0 2.356 1.91 4.267 4.267 4.267s4.267-1.91 4.267-4.267v-2.133c0-2.356-1.91-4.267-4.267-4.267z"></path>
      <path d="M4.267 10.667c-2.356 0-4.267 1.91-4.267 4.267v1.067c0 2.356 1.91 4.267 4.267 4.267s4.267-1.91 4.267-4.267v-1.067c0-2.356-1.91-4.267-4.267-4.267z"></path>
      <path d="M27.733 10.667c-2.357 0-4.267 1.91-4.267 4.267v1.067c0 2.356 1.91 4.267 4.267 4.267s4.267-1.91 4.267-4.267v-1.067c0-2.356-1.91-4.267-4.267-4.267z"></path>
      <path d="M20.507 16.595c-2.336-2.836-6.679-2.836-9.014 0l-6.225 7.559c-2.577 3.129-0.351 7.846 3.703 7.846 0.579 0 1.151-0.135 1.669-0.394l0.767-0.384c2.891-1.446 6.295-1.446 9.186 0l0.767 0.384c0.518 0.259 1.089 0.394 1.669 0.394 4.054 0 6.28-4.717 3.703-7.846l-6.225-7.559z"></path>
    </symbol>
    <symbol id="home" viewBox="0 0 32 32">
      <path d="M5.333 25.333v-12c0-0.422 0.095-0.822 0.284-1.2s0.45-0.689 0.783-0.933l8-6c0.467-0.356 1-0.533 1.6-0.533s1.133 0.178 1.6 0.533l8 6c0.333 0.244 0.595 0.556 0.784 0.933s0.284 0.778 0.283 1.2v12c0 0.733-0.261 1.361-0.784 1.884s-1.15 0.784-1.883 0.783h-4c-0.378 0-0.694-0.128-0.949-0.384s-0.383-0.572-0.384-0.949v-6.667c0-0.378-0.128-0.694-0.384-0.949s-0.572-0.383-0.949-0.384h-2.667c-0.378 0-0.694 0.128-0.949 0.384s-0.383 0.572-0.384 0.949v6.667c0 0.378-0.128 0.695-0.384 0.951s-0.572 0.384-0.949 0.383h-4c-0.733 0-1.361-0.261-1.883-0.783s-0.783-1.15-0.784-1.884z"></path>
    </symbol>
    <symbol id="logo" viewBox="0 0 32 32">
      <path d="M11.133 4c1.573-0.227 3.24 1.493 3.72 3.867 0.48 2.36-0.387 4.467-1.96 4.707-1.56 0.24-3.24-1.48-3.733-3.853-0.493-2.36 0.4-4.467 1.973-4.72zM20.667 4c1.587 0.253 2.467 2.36 2 4.72-0.507 2.373-2.173 4.093-3.747 3.853-1.587-0.24-2.453-2.347-1.96-4.707 0.48-2.373 2.147-4.093 3.707-3.867zM4 10.133c1.52-0.653 3.587 0.533 4.667 2.6 1.013 2.107 0.667 4.32-0.84 4.973s-3.56-0.52-4.613-2.613c-1.053-2.093-0.68-4.32 0.787-4.96zM28 10.133c1.467 0.64 1.84 2.867 0.787 4.96s-3.107 3.267-4.613 2.613c-1.507-0.653-1.853-2.867-0.84-4.973 1.080-2.067 3.147-3.253 4.667-2.6zM25.773 24.507c0.053 1.253-0.907 2.64-2.053 3.16-2.387 1.093-5.213-1.173-7.867-1.173s-5.507 2.36-7.853 1.173c-1.333-0.653-2.253-2.387-2.080-3.827 0.24-1.987 2.627-3.053 4.040-4.507 1.88-1.88 3.213-5.413 5.893-5.413 2.667 0 4.080 3.48 5.88 5.413 1.48 1.627 3.947 3 4.040 5.173z"></path>
    </symbol>
    <symbol id="plus" viewBox="0 0 32 32">
      <path d="M24 17.331h-6.667v6.667c0 0.354-0.14 0.693-0.391 0.943s-0.589 0.391-0.943 0.391c-0.354 0-0.693-0.14-0.943-0.391s-0.391-0.589-0.391-0.943v-6.667h-6.667c-0.354 0-0.693-0.14-0.943-0.391s-0.391-0.589-0.391-0.943c0-0.354 0.14-0.693 0.391-0.943s0.589-0.391 0.943-0.391h6.667v-6.667c0-0.354 0.14-0.693 0.391-0.943s0.589-0.391 0.943-0.391c0.354 0 0.693 0.14 0.943 0.391s0.391 0.589 0.391 0.943v6.667h6.667c0.354 0 0.693 0.14 0.943 0.391s0.391 0.589 0.391 0.943c0 0.354-0.14 0.693-0.391 0.943s-0.589 0.391-0.943 0.391z"></path>
    </symbol>
    <symbol id="request" viewBox="0 0 32 32">
      <path d="M4 6.667c0-0.707 0.281-1.386 0.781-1.886s1.178-0.781 1.886-0.781h4v6.667h-6.667v-4zM10.667 13.333h-6.667v12c0 0.707 0.281 1.386 0.781 1.886s1.178 0.781 1.886 0.781h4v-14.667zM13.333 28h12c0.707 0 1.386-0.281 1.886-0.781s0.781-1.178 0.781-1.886v-12h-14.667v14.667zM13.333 10.667v-6.667h12c0.707 0 1.386 0.281 1.886 0.781s0.781 1.178 0.781 1.886v4h-14.667z"></path>
    </symbol>
    <symbol id="search" viewBox="0 0 32 32">
      <path d="M20.667 18.667h-1.053l-0.373-0.36c0.833-0.968 1.442-2.108 1.783-3.339s0.406-2.522 0.19-3.781c-0.627-3.707-3.72-6.667-7.453-7.12-1.313-0.166-2.646-0.030-3.897 0.399s-2.389 1.138-3.324 2.073c-0.936 0.935-1.645 2.073-2.073 3.324s-0.565 2.585-0.399 3.897c0.453 3.733 3.413 6.827 7.12 7.453 1.259 0.216 2.55 0.151 3.781-0.19s2.371-0.95 3.339-1.783l0.36 0.373v1.053l5.667 5.667c0.547 0.547 1.44 0.547 1.987 0s0.547-1.44 0-1.987l-5.653-5.68zM12.667 18.667c-3.32 0-6-2.68-6-6s2.68-6 6-6c3.32 0 6 2.68 6 6s-2.68 6-6 6z"></path>
    </symbol>
    <symbol id="settings" viewBox="0 0 32 32">
      <path d="M19.039 2.869c0.325 0.133 0.621 0.329 0.871 0.577s0.447 0.542 0.582 0.867c0.125 0.297 0.173 0.644 0.193 1.151 0.009 0.366 0.112 0.723 0.297 1.039s0.448 0.579 0.763 0.765c0.322 0.179 0.684 0.274 1.052 0.276s0.731-0.089 1.055-0.265c0.451-0.237 0.777-0.368 1.1-0.411 0.706-0.092 1.42 0.098 1.987 0.528 0.424 0.324 0.736 0.861 1.363 1.937s0.939 1.615 1.009 2.14c0.045 0.348 0.022 0.701-0.070 1.039s-0.248 0.655-0.462 0.933c-0.199 0.256-0.477 0.471-0.909 0.741-0.635 0.395-1.043 1.069-1.043 1.813s0.408 1.419 1.044 1.815c0.431 0.269 0.709 0.484 0.907 0.74 0.214 0.277 0.371 0.595 0.463 0.933s0.116 0.692 0.070 1.039c-0.071 0.527-0.383 1.064-1.009 2.14-0.625 1.076-0.939 1.615-1.363 1.937-0.565 0.431-1.28 0.621-1.987 0.528-0.323-0.043-0.649-0.173-1.1-0.411-0.324-0.176-0.686-0.267-1.054-0.265s-0.73 0.097-1.051 0.275c-0.649 0.372-1.035 1.060-1.061 1.804-0.020 0.507-0.068 0.853-0.193 1.151-0.135 0.325-0.333 0.619-0.582 0.867s-0.545 0.444-0.871 0.577c-0.493 0.203-1.12 0.203-2.372 0.203s-1.879 0-2.372-0.203c-0.659-0.271-1.181-0.791-1.453-1.444-0.125-0.297-0.173-0.644-0.193-1.151-0.028-0.744-0.412-1.431-1.060-1.804-0.322-0.179-0.684-0.274-1.052-0.276s-0.731 0.089-1.055 0.265c-0.451 0.237-0.777 0.368-1.1 0.411-0.707 0.092-1.421-0.097-1.987-0.528-0.424-0.324-0.736-0.861-1.363-1.937s-0.939-1.615-1.009-2.14c-0.045-0.348-0.022-0.701 0.070-1.039s0.248-0.655 0.462-0.933c0.199-0.256 0.477-0.471 0.909-0.741 0.635-0.395 1.043-1.069 1.043-1.813s-0.408-1.419-1.044-1.815c-0.431-0.269-0.709-0.484-0.907-0.74-0.435-0.561-0.627-1.271-0.533-1.972 0.071-0.527 0.383-1.064 1.009-2.14 0.625-1.076 0.939-1.615 1.363-1.937 0.567-0.43 1.281-0.62 1.987-0.528 0.323 0.043 0.649 0.173 1.1 0.411 0.323 0.176 0.686 0.267 1.054 0.265s0.73-0.097 1.051-0.275c0.315-0.186 0.578-0.449 0.764-0.765s0.288-0.673 0.298-1.039c0.020-0.505 0.068-0.853 0.193-1.151 0.135-0.325 0.333-0.619 0.582-0.867s0.545-0.444 0.871-0.577c0.495-0.203 1.12-0.203 2.372-0.203s1.879 0 2.372 0.203zM16.667 20c2.227 0 4.031-1.791 4.031-4s-1.805-4-4.031-4c-2.225 0-4.031 1.791-4.031 4s1.805 4 4.031 4z"></path>
    </symbol>
    <symbol id="arrow" viewBox="0 0 32 32">
      <path stroke-linejoin="round" stroke-linecap="round" stroke-miterlimit="4" stroke-width="1.3333" d="M9.333 13.333l6.667 6.667 6.667-6.667"></path>
    </symbol>
    <symbol id="cross" viewBox="0 0 32 32">
      <path d="M21.421 11.993c0.096-0.092 0.172-0.203 0.224-0.325s0.080-0.253 0.081-0.386-0.024-0.264-0.074-0.387c-0.050-0.123-0.124-0.235-0.218-0.329s-0.205-0.168-0.328-0.219c-0.123-0.050-0.255-0.076-0.387-0.075s-0.264 0.029-0.386 0.081-0.232 0.128-0.325 0.224l-4.008 4.007-4.007-4.007c-0.092-0.098-0.202-0.177-0.325-0.232s-0.255-0.084-0.389-0.086c-0.134-0.002-0.268 0.022-0.392 0.073s-0.238 0.125-0.333 0.22c-0.095 0.095-0.17 0.208-0.22 0.333s-0.075 0.258-0.073 0.392c0.002 0.134 0.032 0.267 0.086 0.389s0.133 0.233 0.232 0.325l4.004 4.008-4.007 4.007c-0.177 0.19-0.273 0.44-0.268 0.699s0.11 0.506 0.293 0.689c0.183 0.183 0.43 0.288 0.689 0.293s0.51-0.092 0.699-0.268l4.009-4.007 4.007 4.008c0.19 0.177 0.44 0.273 0.699 0.268s0.506-0.11 0.689-0.293 0.288-0.43 0.293-0.689c0.005-0.259-0.092-0.51-0.268-0.699l-4.004-4.008 4.005-4.007z"></path>
    </symbol>
    <symbol id="search" viewBox="0 0 32 32">
      <path d="M20.667 18.667h-1.053l-0.373-0.36c0.833-0.968 1.442-2.108 1.783-3.339s0.406-2.522 0.19-3.781c-0.627-3.707-3.72-6.667-7.453-7.12-1.313-0.166-2.646-0.030-3.897 0.399s-2.389 1.138-3.324 2.073c-0.936 0.935-1.645 2.073-2.073 3.324s-0.565 2.585-0.399 3.897c0.453 3.733 3.413 6.827 7.12 7.453 1.259 0.216 2.55 0.151 3.781-0.19s2.371-0.95 3.339-1.783l0.36 0.373v1.053l5.667 5.667c0.547 0.547 1.44 0.547 1.987 0s0.547-1.44 0-1.987l-5.653-5.68zM12.667 18.667c-3.32 0-6-2.68-6-6s2.68-6 6-6c3.32 0 6 2.68 6 6s-2.68 6-6 6z"></path>
    </symbol>
    <symbol id="arrow-l" viewBox="0 0 32 32">
      <path d="M20.213 9.88l-6.107 6.12 6.107 6.12-1.88 1.88-8-8 8-8 1.88 1.88z"></path>
    </symbol>
    <symbol id="arrow-r" viewBox="0 0 32 32">
      <path d="M11.787 9.88l6.107 6.12-6.107 6.12 1.88 1.88 8-8-8-8-1.88 1.88z"></path>
    </symbol>
    <symbol id="exchange" viewBox="0 0 32 32">
      <path d="M28.33 10.73l-4.8 4.8c-0.625 0.625-1.64 0.625-2.265 0s-0.625-1.64 0-2.265l2.070-2.065h-18.535c-0.885 0-1.6-0.715-1.6-1.6s0.715-1.6 1.6-1.6h18.535l-2.070-2.070c-0.625-0.625-0.625-1.64 0-2.265s1.64-0.625 2.265 0l4.8 4.8c0.625 0.625 0.625 1.64 0 2.265zM8.465 28.33l-4.8-4.8c-0.625-0.625-0.625-1.64 0-2.265l4.8-4.8c0.625-0.625 1.64-0.625 2.265 0s0.625 1.64 0 2.265l-2.065 2.070h18.535c0.885 0 1.6 0.715 1.6 1.6s-0.715 1.6-1.6 1.6h-18.535l2.070 2.070c0.625 0.625 0.625 1.64 0 2.265s-1.64 0.625-2.265 0l-0.005-0.005z"></path>
    </symbol>
    <symbol id="edit" viewBox="0 0 32 32">
      <path d="M5.333 28c-0.378 0-0.694-0.128-0.949-0.384s-0.383-0.572-0.384-0.949v-3.233c0-0.356 0.067-0.695 0.2-1.017s0.322-0.606 0.567-0.849l16.833-16.8c0.267-0.244 0.561-0.433 0.884-0.567s0.661-0.2 1.016-0.2c0.355 0 0.699 0.067 1.033 0.2s0.623 0.333 0.867 0.6l1.833 1.867c0.267 0.244 0.461 0.533 0.583 0.867s0.183 0.667 0.184 1c0 0.356-0.061 0.695-0.184 1.017s-0.317 0.617-0.583 0.883l-16.8 16.8c-0.244 0.244-0.528 0.433-0.851 0.567s-0.661 0.2-1.016 0.2h-3.233zM23.467 10.4l1.867-1.867-1.867-1.867-1.867 1.867 1.867 1.867z"></path>
    </symbol>
    <symbol id="go-back" viewBox="0 0 32 32">
      <path d="M10.433 17.333l6.533 6.533c0.267 0.267 0.395 0.578 0.384 0.933s-0.15 0.667-0.417 0.933c-0.267 0.244-0.578 0.372-0.933 0.384s-0.667-0.117-0.933-0.384l-8.8-8.8c-0.133-0.133-0.228-0.278-0.284-0.433s-0.083-0.322-0.081-0.5c0.002-0.178 0.030-0.344 0.084-0.5s0.148-0.3 0.283-0.433l8.8-8.8c0.244-0.244 0.55-0.367 0.917-0.367s0.684 0.122 0.949 0.367c0.267 0.267 0.4 0.584 0.4 0.951s-0.133 0.684-0.4 0.949l-6.501 6.5h14.9c0.378 0 0.695 0.128 0.951 0.384s0.383 0.572 0.383 0.949c-0.001 0.377-0.129 0.694-0.384 0.951s-0.572 0.384-0.949 0.383h-14.9z"></path>
    </symbol>
    <symbol id="warning" viewBox="0 0 32 32">
      <path d="M16 2.667c7.364 0 13.333 5.969 13.333 13.333s-5.969 13.333-13.333 13.333c-7.364 0-13.333-5.969-13.333-13.333s5.969-13.333 13.333-13.333zM16 20c-0.354 0-0.693 0.14-0.943 0.391s-0.39 0.589-0.39 0.943c0 0.354 0.14 0.693 0.39 0.943s0.589 0.39 0.943 0.39 0.693-0.14 0.943-0.39c0.25-0.25 0.391-0.589 0.391-0.943s-0.14-0.693-0.391-0.943c-0.25-0.25-0.589-0.391-0.943-0.391zM16 8c-0.327 0-0.642 0.12-0.886 0.337s-0.4 0.516-0.438 0.84l-0.009 0.156v8c0 0.34 0.13 0.667 0.364 0.914s0.552 0.396 0.891 0.416c0.339 0.020 0.673-0.090 0.934-0.309s0.428-0.528 0.468-0.865l0.009-0.156v-8c0-0.354-0.14-0.693-0.391-0.943s-0.589-0.391-0.943-0.391z"></path>
    </symbol>
    <symbol id="moon" viewBox="0 0 32 32">
      <path stroke-linejoin="round" stroke-linecap="round" stroke-miterlimit="4" stroke-width="2.6667" d="M27.98 16.648c-0.353 6.343-5.583 11.353-11.983 11.353-6.627 0-12-5.373-12-12 0-6.399 5.009-11.629 11.321-11.981l0.031-0.001c0.54-0.029 0.823 0.613 0.536 1.071-0.763 1.203-1.216 2.669-1.216 4.24 0 4.418 3.582 8 8 8 1.571 0 3.037-0.453 4.273-1.235l-0.033 0.019c0.459-0.287 1.1-0.005 1.071 0.535"></path>
    </symbol>
    <symbol id="sun" viewBox="0 0 32 32">
      <path stroke-linejoin="round" stroke-linecap="round" stroke-miterlimit="4" stroke-width="2.6667" d="M21.333 16c0 2.946-2.388 5.333-5.333 5.333s-5.333-2.388-5.333-5.333c0-2.946 2.388-5.333 5.333-5.333s5.333 2.388 5.333 5.333z"></path>
      <path stroke-linejoin="round" stroke-linecap="round" stroke-miterlimit="4" stroke-width="2.6667" d="M16 2.667v2.667"></path>
      <path stroke-linejoin="round" stroke-linecap="round" stroke-miterlimit="4" stroke-width="2.6667" d="M16 26.667v2.667"></path>
      <path stroke-linejoin="round" stroke-linecap="round" stroke-miterlimit="4" stroke-width="2.6667" d="M6.573 6.573l1.88 1.88"></path>
      <path stroke-linejoin="round" stroke-linecap="round" stroke-miterlimit="4" stroke-width="2.6667" d="M23.547 23.547l1.88 1.88"></path>
      <path stroke-linejoin="round" stroke-linecap="round" stroke-miterlimit="4" stroke-width="2.6667" d="M2.667 16h2.667"></path>
      <path stroke-linejoin="round" stroke-linecap="round" stroke-miterlimit="4" stroke-width="2.6667" d="M26.667 16h2.667"></path>
      <path stroke-linejoin="round" stroke-linecap="round" stroke-miterlimit="4" stroke-width="2.6667" d="M8.453 23.547l-1.88 1.88"></path>
      <path stroke-linejoin="round" stroke-linecap="round" stroke-miterlimit="4" stroke-width="2.6667" d="M25.427 6.573l-1.88 1.88"></path>
    </symbol>
    <symbol id="upload" viewBox="0 0 32 32">
      <path stroke-linejoin="round" stroke-linecap="round" stroke-miterlimit="4" stroke-width="2" d="M16.005 27.333l-0.006-12"></path>
      <path stroke-linejoin="round" stroke-linecap="round" stroke-miterlimit="4" stroke-width="2" d="M27.012 22.877c2.191-1.541 3.131-4.324 2.322-6.877s-3.286-3.952-5.965-3.95h-1.547c-1.012-3.942-4.349-6.853-8.392-7.318s-7.955 1.61-9.836 5.219-1.343 8.004 1.355 11.052"></path>
      <path stroke-linejoin="round" stroke-linecap="round" stroke-miterlimit="4" stroke-width="2" d="M20.243 18.424l-4.243-4.243-4.243 4.243"></path>
    </symbol>
  </defs>
</svg>